<svg version="1.1" id="Layer_1" xmlns="http://www.w3.org/2000/svg" xmlns:xlink="http://www.w3.org/1999/xlink" x="0px" y="0px"
	 viewBox="0 0 128 113" style="enable-background:new 0 0 128 113;" xml:space="preserve">
<style type="text/css">
	.st0{fill:#BC7062;}
	.st1{fill:#CD9B5A;}
</style>
<path class="st0" d="M57.7,67.7l-1,0.1l-0.1,0.5l0.2,1.4l-0.4,0.3v0.3c0,0.3-0.1,0.7-0.4,1.2c-0.2,0.5-0.4,0.8-0.4,1.1l0.2,1.4v0.4
	l0.3,1.3l-0.8,1.4v0.3v1V80l-0.6,0.7l0.6,0.6l-1.2,1v1.4l-0.4,0.4l0.2,1l-0.7,0.3v0.2l-0.6,0.8l-0.7,0.1v1.9l-1.2,0.7
	c-0.8,1.5-1.4,2.6-1.8,3.2l-3.5,2.3l-1.4,0.7L43,96.5l-0.6-0.1l-2.2,0.8L38,97L35.4,98L33,97.3l-1.7,0.2L31,97.5l-1.5,1.2l-1.1-1.4
	l-0.6,0.1L26,96.7l-2.7,0.7l-0.5-1.4l-2.4,0.2l-0.9-1.1h-1.9v-0.3l-1.1-0.5h-0.8c-1-0.5-1.5-1.4-1.5-2.9c0-0.6,0.7-0.9,2.2-0.9
	c1.4,0,3.1,0.4,4.9,1.3c1.2,0,2.4,0.2,3.5,0.6l0.6,0.1h1.2L27,93l1.8-0.2l1.6,0.4l0.5-0.1l1.2,0.4l0.9-0.3c2.1,0,3.4-0.1,4-0.2h2.4
	l0.4-0.9H41l0.4-0.6h0.9l0.6-0.4l0.4-0.1l0.5-0.4l1-0.9l0.4-1.4l1.1-0.4l0.3-1.4l1-0.7c0-0.5,0-0.9,0.1-1.2l0.2-0.2l-0.5-0.7
	l0.9-0.9l-0.1-0.7c0.2-0.2,0.5-0.6,1-1.2l0.3-1.4v-2.7h0.7l0.1-1v-0.3l0.4-0.1L49.9,73l0.4-0.1l0.6-1.7l-0.1-1l0.5-5.8l0.4-1.2
	l-0.4-2.4l0.4-0.9l-0.5-0.7l0.5-2l-0.9-2.8l0-3.2l-0.7-1.8l0.1-0.4l-0.8-0.1c0.4-5,1.8-7.5,4-7.5c1.1,0,1.8,0.4,2.1,1.2l0.2,0.4
	l1.4,0.9l-0.7,1.3l0.5,0.7l-0.1,0.9l0.4,0.2v1.5l0.5,1.2l-0.5,2.4l0.3,3.6v1.1v3.2l-0.3,1.6l0.3,2.2v0.5v1.4l-0.6,0.6l0.1,0.2
	L57.7,67.7z"/>
<path class="st1" d="M112.5,43.8c0,0.3-0.3,0.6-0.8,1.1c-0.5,0.4-0.8,0.9-0.9,1.4c-0.2,0.4-0.6,0.8-1,1.2c-0.1,0.6-0.6,0.9-1.4,1.1
	l-1.3,1l-0.9,1.7h-0.7c-0.3,0.5-0.8,0.9-1.3,1.4c-0.1,0-0.6,0.2-1.2,0.6l-1.5,1.7l-2,1.4l-0.6,0.2l-0.6,1.2l-1.6,0.9l-0.8,0.8
	L95,61.3l-2.7,3l-0.9,1.3l-0.4,0.7l0.4,0.7L91,68.2l0.4,1.2l-0.6,1.7l0.1,1l0.5,2c-0.7,0.9-1.1,1.7-1.1,2.4c0,0.3,0.1,0.8,0.2,1.5
	c0.1,0.7,0.2,1.2,0.2,1.4l-0.6,3.2l0.1,1.8L90,85.1l0.5,2.6l-0.6,0.9l0.5,1.3L90,90.5l0.3,0.6c0.1,0.3,0.2,0.6,0.2,0.9v0.4L90,94.2
	l0.4,1.9l-0.6,1.4l0.6,0.9v0.5c0,1.9-0.3,3.3-0.8,4.1s-1.5,1.2-3,1.2l-0.6-3.4l-0.6-2.1l-0.1-1.4l-0.9-0.6l0.6-1.5l-0.3-1L85,92
	l-0.4-2.3l0.2-1.8c0-0.1,0-0.3,0-0.5c0-0.2-0.1-0.4-0.1-0.6c0-0.1,0-0.3,0.1-0.5c0-0.2,0-0.3,0-0.4l-0.4-3.3l0.4-1.6l-0.2-1.7
	l0.4-2.9l-0.6-1.2l0.4-1.7l-0.1-1.4L84,70.8c0.4-0.9,0.6-1.5,0.6-2c0-0.3,0-0.5-0.1-0.6l-0.3-1.3l-0.4-1.2L83,65.1l-0.4-0.6
	c-0.8-0.4-1.9-1.5-3.2-3.2l-1.2-0.7l-1-1.9l-2.9-2.6l-0.6-1l-1.2-1.4l-2.2-1.7v-0.7l-1.1-0.7c-0.2-1.2-0.7-1.8-1.5-1.8
	c-2-1.1-3-2.8-3-5l0.4-1.9H66c0.3-0.3,0.9-0.4,1.6-0.4s1.7,0.2,3,0.6l0.5,1.2l1.2,0.4l1.3,2l1.9,1.4l0.1,0.6l1.5,2.4l1.1,0.8l4,5.5
	l1.3,1.7c1.7,1.8,3.1,3.2,4,4.3v-0.2c0-0.6,0.3-1.2,0.9-1.8l-0.1,0.4c0.3-0.8,0.7-1.4,1.2-1.9c0.1-0.7,0.5-1.2,1-1.6
	c0.1-0.3,0.6-0.9,1.4-1.6l0.6-0.3l0.2-0.3c0.4-1.2,1.3-1.9,2.6-1.9l0.1,0.3L96,52c0.6-0.1,0.8-0.2,0.7-0.2c0.4-0.5,0.8-1,1.1-1.3
	l0.5-0.9c0.8-1.1,1.8-1.7,3.1-1.9v-0.9l0.5-0.6l0.7-0.6l0.4-1.5c0.1,0.2,0.3,0.4,0.6,0.4c0.4,0,0.8-0.6,1.2-1.7l2.2-0.9l1.2-1.2
	l2,0.1l1.5-0.4l0.6,1.5C112.5,42.7,112.5,43.3,112.5,43.8z"/>
</svg>
